HIERARCHY
ROOT Hips
{
 OFFSET 0.000000 0.000000 0.000000
 CHANNELS 6 Xposition Yposition Zposition Yrotation Xrotation Zrotation
 JOINT Chest
 {
  OFFSET 0.000000 9.581000 -0.001100
  CHANNELS 3 Yrotation Xrotation Zrotation
  JOINT Chest2
  {
   OFFSET 0.000000 9.561100 0.002200
   CHANNELS 3 Yrotation Xrotation Zrotation
   JOINT Chest3
   {
    OFFSET 0.000000 9.521100 0.000000
    CHANNELS 3 Yrotation Xrotation Zrotation
    JOINT Chest4
    {
     OFFSET 0.000000 9.511400 0.000000
     CHANNELS 3 Yrotation Xrotation Zrotation
     JOINT Neck
     {
      OFFSET 0.000000 14.375100 0.000000
      CHANNELS 3 Yrotation Xrotation Zrotation
      JOINT Head
      {
       OFFSET 0.000000 8.901200 0.004600
       CHANNELS 3 Yrotation Xrotation Zrotation
       End Site
       {
        OFFSET 0.000000 16.962200 0.002400
       }
      }
     }
     JOINT RightCollar
     {
      OFFSET -2.920100 9.518800 0.000000
      CHANNELS 3 Yrotation Xrotation Zrotation
      JOINT RightShoulder
      {
       OFFSET -13.664500 0.000000 0.000000
       CHANNELS 3 Yrotation Xrotation Zrotation
       JOINT RightElbow
       {
        OFFSET 0.000000 -29.999200 0.000000
        CHANNELS 3 Yrotation Xrotation Zrotation
        JOINT RightWrist
        {
         OFFSET 0.000000 -24.253600 0.000000
         CHANNELS 3 Yrotation Xrotation Zrotation
         End Site
         {
          OFFSET 0.000000 -17.918900 0.000000
         }
        }
       }
      }
     }
     JOINT LeftCollar
     {
      OFFSET 2.920100 9.518800 0.000000
      CHANNELS 3 Yrotation Xrotation Zrotation
      JOINT LeftShoulder
      {
       OFFSET 13.664500 0.000000 0.000000
       CHANNELS 3 Yrotation Xrotation Zrotation
       JOINT LeftElbow
       {
        OFFSET 0.000000 -29.999200 0.000000
        CHANNELS 3 Yrotation Xrotation Zrotation
        JOINT LeftWrist
        {
         OFFSET 0.000000 -24.253600 0.000000
         CHANNELS 3 Yrotation Xrotation Zrotation
         End Site
         {
          OFFSET 0.000000 -17.918900 0.000000
         }
        }
       }
      }
     }
    }
   }
  }
 }
 JOINT RightHip
 {
  OFFSET -7.797300 0.005300 0.000500
  CHANNELS 3 Yrotation Xrotation Zrotation
  JOINT RightKnee
  {
   OFFSET 0.000000 -40.663400 -0.000500
   CHANNELS 3 Yrotation Xrotation Zrotation
   JOINT RightAnkle
   {
    OFFSET 0.000000 -39.523700 -0.000900
    CHANNELS 3 Yrotation Xrotation Zrotation
    JOINT RightToe
    {
     OFFSET 0.000000 -6.418000 14.485300
     CHANNELS 3 Yrotation Xrotation Zrotation
     End Site
     {
      OFFSET 0.000000 -1.465200 6.326400
     }
    }
   }
  }
 }
 JOINT LeftHip
 {
  OFFSET 7.797300 0.005300 0.000500
  CHANNELS 3 Yrotation Xrotation Zrotation
  JOINT LeftKnee
  {
   OFFSET 0.000000 -40.663400 -0.000500
   CHANNELS 3 Yrotation Xrotation Zrotation
   JOINT LeftAnkle
   {
    OFFSET 0.000000 -39.523700 -0.000900
    CHANNELS 3 Yrotation Xrotation Zrotation
    JOINT LeftToe
    {
     OFFSET 0.000000 -6.418000 14.485300
     CHANNELS 3 Yrotation Xrotation Zrotation
     End Site
     {
      OFFSET 0.000000 -1.465200 6.326400
     }
    }
   }
  }
 }
}
MOTION
Frames: 15
Frame Time: 0.008333
-23.212679 126.349709 57.218583 -175.378028 -26.559784 -0.467670 -0.863624 22.280591 -0.034635 -0.118349 3.100338 0.015292 -0.192367 5.026065 0.024185 -0.730616 18.862379 -0.010246 0.198093 12.926524 0.768279 0.034984 -12.128131 0.745456 -6.654609 -3.217444 -3.326734 -18.595498 1.006509 -8.744582 168.243869 -47.833396 -159.891234 -4.410166 -19.865053 -37.120100 -5.921652 -4.311831 2.947558 15.817656 -7.806349 9.980998 -176.524014 -53.662824 175.217556 -25.229344 -22.824727 44.810025 -10.099377 -61.991889 4.801555 -37.954483 69.302436 -37.567313 27.416017 39.775142 15.308217 0.027631 -0.017129 0.012239 -11.479650 -50.511160 -4.909301 17.009344 70.694877 7.044112 0.148352 7.950872 6.313594 -0.002341 0.003347 -0.001037
-23.212150 126.350721 57.220506 -175.376704 -26.566837 -0.468601 -0.863915 22.280693 -0.030745 -0.119019 3.099991 0.015368 -0.193013 5.031430 0.021555 -0.734160 18.855454 -0.008213 0.201286 12.929817 0.764750 0.036540 -12.123799 0.743068 -6.645713 -3.217165 -3.332062 -18.598275 1.001534 -8.746575 168.242151 -47.796930 -159.888970 -4.429192 -19.844860 -37.120068 -5.916698 -4.333074 2.951454 15.824499 -7.781916 9.978779 -176.518839 -53.655173 175.202213 -25.250693 -22.822994 44.788084 -10.156824 -61.977901 4.843650 -37.936067 69.301606 -37.574151 27.466033 39.726470 15.347016 0.026970 -0.015757 0.011947 -11.474455 -50.499359 -4.910489 16.988764 70.689495 7.025662 0.147875 7.952096 6.313982 -0.001456 0.003170 -0.000645
-23.211625 126.351989 57.222550 -175.374908 -26.579052 -0.470879 -0.869123 22.277623 -0.033079 -0.119211 3.100696 0.015138 -0.193417 5.032465 0.021350 -0.735884 18.857109 -0.009186 0.206252 12.921124 0.768691 0.042781 -12.109027 0.741024 -6.620834 -3.234065 -3.322484 -18.590223 0.981414 -8.759005 168.212643 -47.829729 -159.870550 -4.436129 -19.845891 -37.114622 -5.909166 -4.327466 2.953997 15.836778 -7.773408 9.975567 -176.478183 -53.600851 175.161413 -25.228115 -22.790429 44.755181 -10.203673 -61.957602 4.865622 -37.898389 69.305798 -37.553028 27.534730 39.682086 15.385821 0.024272 -0.011104 0.010752 -11.475049 -50.483490 -4.907244 16.969059 70.684284 7.004953 0.147805 7.954557 6.314560 -0.000615 0.002731 -0.000272
-23.210865 126.353929 57.223559 -175.370149 -26.603143 -0.477321 -0.873228 22.282317 -0.033567 -0.119124 3.101857 0.015226 -0.193037 5.034176 0.021540 -0.730223 18.844571 -0.012327 0.205443 12.939669 0.777423 0.041643 -12.108756 0.748338 -6.620995 -3.208871 -3.316762 -18.590023 0.978986 -8.760797 168.217351 -47.822008 -159.877099 -4.445861 -19.845577 -37.104149 -5.911535 -4.303224 2.961178 15.847267 -7.761384 9.972260 -176.464070 -53.562992 175.147359 -25.223069 -22.781563 44.739154 -10.245210 -61.922441 4.877575 -37.859082 69.314588 -37.516595 27.553286 39.642949 15.394107 0.021071 -0.004923 0.009335 -11.484341 -50.456077 -4.900967 16.941543 70.672103 6.975543 0.154675 7.967286 6.315820 0.000323 0.000016 0.000143
-23.210668 126.355625 57.225082 -175.372307 -26.627582 -0.477584 -0.872658 22.266731 -0.041357 -0.117311 3.103473 0.014977 -0.190108 5.036756 0.021252 -0.726491 18.872648 -0.005617 0.204203 12.937752 0.778385 0.036330 -12.104606 0.758587 -6.616170 -3.218050 -3.305647 -18.576080 0.968448 -8.770676 168.217758 -47.799938 -159.896905 -4.460343 -19.819733 -37.077906 -5.914239 -4.302248 2.965525 15.855911 -7.749095 9.971069 -176.462772 -53.529902 175.149046 -25.217201 -22.782764 44.730108 -10.252481 -61.884326 4.857784 -37.804163 69.320615 -37.451269 27.538027 39.613577 15.393246 0.011001 0.000917 0.004874 -11.482400 -50.429886 -4.902678 16.920688 70.663370 6.955339 0.160389 7.975823 6.314937 0.000790 -0.001719 0.000350
-23.209221 126.356850 57.227110 -175.378960 -26.649323 -0.483081 -0.863991 22.267068 -0.037579 -0.116228 3.104358 0.014796 -0.189098 5.047853 0.023198 -0.721882 18.873954 -0.004295 0.201192 12.941219 0.779849 0.026974 -12.104451 0.765149 -6.613255 -3.224079 -3.296091 -18.554457 0.944450 -8.777042 168.189824 -47.813577 -159.892495 -4.477344 -19.816023 -37.048928 -5.925828 -4.303712 2.973055 15.870776 -7.739140 9.972878 -176.484892 -53.510796 175.168378 -25.213395 -22.777054 44.723100 -10.246416 -61.851003 4.831232 -37.721018 69.329865 -37.333611 27.495064 39.611327 15.368021 0.007771 0.000250 0.003443 -11.486233 -50.406112 -4.890822 16.913453 70.657364 6.946199 0.161594 7.981024 6.314785 -0.000298 -0.002159 -0.000132
-23.208336 126.358302 57.228141 -175.388028 -26.676964 -0.484169 -0.853802 22.274089 -0.035872 -0.115824 3.114596 0.016083 -0.189238 5.048433 0.021903 -0.715720 18.866721 -0.009065 0.198442 12.953532 0.787391 0.019503 -12.102398 0.769031 -6.614344 -3.221030 -3.280659 -18.549716 0.946236 -8.785879 168.177076 -47.802626 -159.892378 -4.496901 -19.812205 -37.022279 -5.934551 -4.292556 2.980120 15.885451 -7.744528 9.982904 -176.529399 -53.508816 175.198052 -25.216409 -22.775772 44.724691 -10.218446 -61.810216 4.789653 -37.642513 69.336780 -37.229837 27.465267 39.601335 15.363837 0.000732 0.003699 0.000325 -11.487311 -50.375794 -4.881576 16.914597 70.652534 6.940427 0.162010 7.978477 6.312560 -0.001038 -0.002514 -0.000460
-23.208238 126.359414 57.229071 -175.391773 -26.702405 -0.482090 -0.851352 22.281807 -0.039520 -0.113779 3.122052 0.017522 -0.186968 5.039359 0.020536 -0.710019 18.853160 -0.011311 0.187528 12.966006 0.790935 0.019712 -12.083721 0.772730 -6.615744 -3.202314 -3.270058 -18.539433 0.939389 -8.787992 168.137013 -47.803493 -159.869672 -4.504085 -19.826671 -36.992553 -5.934515 -4.266426 2.981444 15.879224 -7.742405 9.989298 -176.559031 -53.503893 175.219936 -25.194972 -22.794455 44.769713 -10.153658 -61.776579 4.705657 -37.576372 69.343605 -37.125329 27.457376 39.597383 15.375723 -0.007629 0.005427 -0.003381 -11.485449 -50.348782 -4.879977 16.913657 70.646875 6.931447 0.161451 7.978954 6.313246 -0.001225 -0.001934 -0.000543
-23.207069 126.360651 57.228917 -175.395894 -26.729582 -0.485549 -0.847896 22.295237 -0.035246 -0.111916 3.118181 0.014039 -0.187775 5.033217 0.020376 -0.708745 18.863316 -0.006739 0.185284 12.971804 0.789157 0.020711 -12.078523 0.771633 -6.611796 -3.221067 -3.260608 -18.532175 0.948256 -8.794465 168.086378 -47.800919 -159.826845 -4.517331 -19.825254 -36.985298 -5.923425 -4.275174 2.982999 15.871631 -7.724349 9.993257 -176.592664 -53.500136 175.244922 -25.192857 -22.796076 44.787899 -10.110511 -61.744100 4.658441 -37.551558 69.338913 -37.074794 27.485220 39.601524 15.393718 -0.006949 0.005095 -0.003079 -11.481648 -50.319897 -4.875176 16.927121 70.642605 6.941354 0.153774 7.981375 6.313098 -0.001168 -0.002267 -0.000518
-23.206566 126.360729 57.230322 -175.399147 -26.740704 -0.483351 -0.846696 22.300410 -0.035765 -0.113860 3.110585 0.012291 -0.186034 5.040031 0.020621 -0.711608 18.857640 -0.002226 0.186759 12.981623 0.783438 0.009557 -12.091435 0.773243 -6.604605 -3.228495 -3.261517 -18.526021 0.944519 -8.782052 168.035734 -47.807011 -159.774776 -4.493335 -19.838866 -36.992626 -5.914657 -4.271197 2.977096 15.886681 -7.745240 10.002906 -176.651842 -53.520151 175.277667 -25.194028 -22.799026 44.800652 -10.079827 -61.730754 4.627695 -37.546901 69.327016 -37.055026 27.513805 39.610659 15.404686 -0.005987 0.004712 -0.002653 -11.459086 -50.306557 -4.890343 16.935284 70.634781 6.960799 0.144630 7.985438 6.309498 -0.000568 -0.001058 -0.000252
-23.206764 126.360229 57.232327 -175.403051 -26.742102 -0.475198 -0.846974 22.296640 -0.040812 -0.120002 3.100251 0.018046 -0.181965 5.044099 0.017805 -0.717399 18.859933 -0.005590 0.189411 12.980281 0.781854 0.010011 -12.084918 0.768532 -6.598706 -3.228170 -3.265836 -18.520771 0.944717 -8.776084 168.003640 -47.802839 -159.744676 -4.433330 -19.867393 -37.022567 -5.907302 -4.265352 2.971833 15.898511 -7.756523 10.006314 -176.680886 -53.530082 175.290585 -25.200088 -22.808982 44.809434 -10.056735 -61.729491 4.607000 -37.549978 69.319268 -37.052092 27.490144 39.611793 15.421826 -0.009249 0.002920 -0.004098 -11.441838 -50.305811 -4.903169 16.955743 70.629903 6.983352 0.135740 7.988949 6.309103 -0.000651 -0.000338 -0.000288
-23.206347 126.359593 57.234223 -175.407046 -26.738685 -0.469873 -0.855848 22.283133 -0.039953 -0.115010 3.103032 0.013228 -0.185000 5.042888 0.017332 -0.714354 18.865327 -0.009887 0.180315 12.963787 0.782583 0.019437 -12.068847 0.762741 -6.596187 -3.227665 -3.267019 -18.518551 0.944211 -8.773978 167.965105 -47.787417 -159.709682 -4.426567 -19.865779 -37.039489 -5.896485 -4.276814 2.968672 15.903111 -7.752991 10.010385 -176.711918 -53.530133 175.306179 -25.222424 -22.814750 44.810348 -10.018734 -61.736135 4.580560 -37.579736 69.309106 -37.068043 27.510694 39.611773 15.452673 -0.004938 0.000451 -0.002188 -11.428194 -50.309332 -4.910759 16.993777 70.624711 7.022422 0.128043 7.992564 6.307257 0.000228 0.000393 0.000101
-23.205742 126.359146 57.235659 -175.409711 -26.734632 -0.466128 -0.856303 22.276494 -0.041365 -0.117192 3.096424 0.015447 -0.187407 5.040987 0.017086 -0.718370 18.858953 -0.012721 0.185514 12.977806 0.777907 0.017238 -12.075188 0.760369 -6.587156 -3.219712 -3.274899 -18.511472 0.945878 -8.761530 167.906287 -47.783989 -159.656390 -4.430107 -19.864746 -37.048747 -5.880478 -4.272293 2.962095 15.905219 -7.746314 10.009592 -176.703896 -53.523527 175.294098 -25.237239 -22.815823 44.810540 -9.989818 -61.744909 4.563292 -37.623175 69.291978 -37.109524 27.591182 39.609713 15.534276 0.001060 -0.003953 0.000470 -11.401913 -50.310120 -4.926271 16.989613 70.618257 7.029206 0.123871 7.997353 6.307672 0.001368 0.001323 0.000606
-23.205609 126.358872 57.236931 -175.413175 -26.730337 -0.459437 -0.856183 22.269192 -0.045686 -0.116902 3.090668 0.016242 -0.190113 5.030681 0.019045 -0.722386 18.849104 -0.013980 0.186373 12.993479 0.775494 0.016605 -12.070669 0.759137 -6.575483 -3.209846 -3.288919 -18.491339 0.959862 -8.735538 167.819253 -47.778807 -159.583245 -4.433202 -19.849079 -37.041379 -5.866176 -4.260377 2.948737 15.898338 -7.733756 10.016427 -176.662689 -53.512901 175.269190 -25.240506 -22.811929 44.806467 -9.971180 -61.753450 4.562418 -37.669934 69.276208 -37.163295 27.630963 39.600171 15.571734 0.001900 -0.010457 0.000842 -11.386394 -50.311923 -4.934602 16.998461 70.612170 7.033124 0.122618 8.002257 6.316255 -0.000731 0.001613 -0.000324
-23.205917 126.359031 57.237653 -175.410025 -26.730281 -0.453904 -0.862661 22.264982 -0.051483 -0.115523 3.086150 0.015944 -0.191267 5.036873 0.017717 -0.723522 18.829843 -0.016637 0.185636 13.005117 0.778405 0.015938 -12.073135 0.760703 -6.569426 -3.198911 -3.290853 -18.481995 0.965740 -8.721273 167.759054 -47.781204 -159.531459 -4.433446 -19.827342 -37.013139 -5.853474 -4.266737 2.943014 15.889776 -7.709011 10.024766 -176.581125 -53.500719 175.221997 -25.207315 -22.810079 44.788647 -9.967377 -61.757419 4.561096 -37.708215 69.295307 -37.206930 27.627956 39.547218 15.570310 0.004711 -0.007684 0.002087 -11.379378 -50.310330 -4.945971 16.983468 70.608162 7.019849 0.126028 8.005718 6.315082 -0.000115 0.002059 -0.000051
